<?xml version="1.0" standalone="no"?>
<!DOCTYPE svg PUBLIC "-//W3C//DTD SVG 20010904//EN"
 "http://www.w3.org/TR/2001/REC-SVG-20010904/DTD/svg10.dtd">
<svg version="1.0" xmlns="http://www.w3.org/2000/svg"
 width="1085.000000pt" height="1084.000000pt" viewBox="0 0 1085.000000 1084.000000"
 preserveAspectRatio="xMidYMid meet">

<g transform="translate(0.000000,1084.000000) scale(0.100000,-0.100000)"
fill="#000000" stroke="none">
<path d="M8340 7925 c-356 -43 -710 -169 -1014 -359 -298 -187 -613 -500 -824
-816 -202 -304 -359 -658 -457 -1035 -58 -220 -76 -328 -81 -484 -10 -326 -76
-598 -214 -876 -340 -692 -1031 -1137 -1765 -1138 -183 0 -281 12 -448 53
-469 117 -901 450 -1190 918 -344 555 -426 1216 -227 1813 281 839 963 1368
1767 1369 405 0 853 -144 1212 -390 76 -52 86 -57 97 -42 7 9 10 21 7 26 -14
23 -233 154 -358 216 -534 260 -1054 307 -1542 139 -484 -167 -886 -540 -1122
-1041 -300 -634 -286 -1321 40 -1959 299 -586 806 -992 1393 -1115 166 -35
439 -44 610 -20 363 51 709 202 996 433 97 79 289 277 363 375 272 363 427
818 427 1255 0 59 4 114 8 120 6 10 219 13 988 15 l979 3 3 23 3 22 -980 0
c-659 0 -981 3 -981 10 0 69 112 464 184 650 375 959 1096 1601 1983 1765 251
47 528 53 818 19 47 -6 53 -4 58 15 4 17 0 21 -27 26 -159 27 -522 32 -706 10z"/>
<path d="M3780 7119 c-433 -56 -831 -267 -1123 -596 -85 -95 -200 -261 -247
-354 -29 -56 -29 -59 -11 -68 17 -9 24 -1 65 72 82 144 177 269 306 397 152
152 270 238 455 330 221 110 419 165 645 178 109 7 115 8 118 30 3 21 1 22
-70 21 -40 -1 -102 -5 -138 -10z"/>
</g>
</svg>
